<svg width="158" height="22" viewBox="0 0 158 22" fill="none" xmlns="http://www.w3.org/2000/svg">
<path d="M18.668 15.6463V21.5H16.3926V17.7683H2.29986L2.27539 21.5H0L0.0244666 15.6463H0.856331C1.93286 15.5813 2.69133 14.7358 3.13173 13.1098C3.57212 11.4675 3.84126 9.15854 3.93912 6.18293L4.11039 0.695121H16.148V15.6463H18.668ZM6.09219 6.40244C6.01063 8.80894 5.8149 10.8008 5.50499 12.378C5.21139 13.9553 4.73021 15.0447 4.06146 15.6463H13.7258V2.81707H6.21452L6.09219 6.40244Z" fill="#1B315F"/>
<path d="M34.4419 15.6463V17.7683H22.0129V0.695121H34.0994V2.81707H24.4595V8.06097H33.0473V10.1341H24.4595V15.6463H34.4419Z" fill="#1B315F"/>
<path d="M54.1629 17.7683L54.1385 5.32927L47.9484 15.6951H46.823L40.6329 5.40244V17.7683H38.2841V0.695121H40.2904L47.4346 12.6951L54.481 0.695121H56.4873L56.5117 17.7683H54.1629Z" fill="#1B315F"/>
<path d="M69.5498 17.9634C67.8208 17.9634 66.2631 17.5894 64.8766 16.8415C63.4902 16.0772 62.3974 15.0285 61.5981 13.6951C60.8152 12.3618 60.4237 10.874 60.4237 9.23171C60.4237 7.58943 60.8152 6.10162 61.5981 4.76829C62.3974 3.43496 63.4902 2.39431 64.8766 1.64634C66.2631 0.882114 67.8208 0.5 69.5498 0.5C71.2624 0.5 72.812 0.882114 74.1984 1.64634C75.5849 2.39431 76.6696 3.43496 77.4525 4.76829C78.2354 6.08536 78.6269 7.57317 78.6269 9.23171C78.6269 10.8902 78.2354 12.3862 77.4525 13.7195C76.6696 15.0366 75.5849 16.0772 74.1984 16.8415C72.812 17.5894 71.2624 17.9634 69.5498 17.9634ZM69.5498 15.7927C70.8057 15.7927 71.9312 15.5081 72.9262 14.939C73.9374 14.3699 74.7285 13.5894 75.2994 12.5976C75.8866 11.5894 76.1802 10.4675 76.1802 9.23171C76.1802 7.99593 75.8866 6.88211 75.2994 5.89024C74.7285 4.88211 73.9374 4.0935 72.9262 3.52439C71.9312 2.95528 70.8057 2.67073 69.5498 2.67073C68.2938 2.67073 67.152 2.95528 66.1244 3.52439C65.1132 4.0935 64.3139 4.88211 63.7267 5.89024C63.1558 6.88211 62.8704 7.99593 62.8704 9.23171C62.8704 10.4675 63.1558 11.5894 63.7267 12.5976C64.3139 13.5894 65.1132 14.3699 66.1244 14.939C67.152 15.5081 68.2938 15.7927 69.5498 15.7927Z" fill="#1B315F"/>
<path d="M103.148 0.695121V17.7683H100.75V2.81707H93.1652L92.9939 7.81707C92.9124 10.1748 92.7167 12.0854 92.4067 13.5488C92.1131 15.0122 91.6401 16.1179 90.9877 16.8659C90.3352 17.5976 89.4544 17.9634 88.3453 17.9634C87.8396 17.9634 87.3258 17.8984 86.8039 17.7683L86.9752 15.5976C87.2361 15.6626 87.4971 15.6951 87.7581 15.6951C88.4595 15.6951 89.0222 15.4187 89.4463 14.8659C89.8704 14.2967 90.1884 13.4512 90.4005 12.3293C90.6125 11.2073 90.7512 9.72764 90.8164 7.89024L91.0855 0.695121H103.148Z" fill="#1B315F"/>
<path d="M116.189 17.9634C114.46 17.9634 112.903 17.5894 111.516 16.8415C110.13 16.0772 109.037 15.0285 108.238 13.6951C107.455 12.3618 107.063 10.874 107.063 9.23171C107.063 7.58943 107.455 6.10162 108.238 4.76829C109.037 3.43496 110.13 2.39431 111.516 1.64634C112.903 0.882114 114.46 0.5 116.189 0.5C117.902 0.5 119.451 0.882114 120.838 1.64634C122.224 2.39431 123.309 3.43496 124.092 4.76829C124.875 6.08536 125.266 7.57317 125.266 9.23171C125.266 10.8902 124.875 12.3862 124.092 13.7195C123.309 15.0366 122.224 16.0772 120.838 16.8415C119.451 17.5894 117.902 17.9634 116.189 17.9634ZM116.189 15.7927C117.445 15.7927 118.571 15.5081 119.566 14.939C120.577 14.3699 121.368 13.5894 121.939 12.5976C122.526 11.5894 122.82 10.4675 122.82 9.23171C122.82 7.99593 122.526 6.88211 121.939 5.89024C121.368 4.88211 120.577 4.0935 119.566 3.52439C118.571 2.95528 117.445 2.67073 116.189 2.67073C114.933 2.67073 113.792 2.95528 112.764 3.52439C111.753 4.0935 110.953 4.88211 110.366 5.89024C109.795 6.88211 109.51 7.99593 109.51 9.23171C109.51 10.4675 109.795 11.5894 110.366 12.5976C110.953 13.5894 111.753 14.3699 112.764 14.939C113.792 15.5081 114.933 15.7927 116.189 15.7927Z" fill="#1B315F"/>
<path d="M140.427 2.81707H131.619L131.644 17.7683H129.222V0.695121H140.452L140.427 2.81707Z" fill="#1B315F"/>
<path d="M148.923 17.9634C147.194 17.9634 145.636 17.5894 144.25 16.8415C142.863 16.0772 141.77 15.0285 140.971 13.6951C140.188 12.3618 139.797 10.874 139.797 9.23171C139.797 7.58943 140.188 6.10162 140.971 4.76829C141.77 3.43496 142.863 2.39431 144.25 1.64634C145.636 0.882114 147.194 0.5 148.923 0.5C150.636 0.5 152.185 0.882114 153.572 1.64634C154.958 2.39431 156.043 3.43496 156.826 4.76829C157.609 6.08536 158 7.57317 158 9.23171C158 10.8902 157.609 12.3862 156.826 13.7195C156.043 15.0366 154.958 16.0772 153.572 16.8415C152.185 17.5894 150.636 17.9634 148.923 17.9634ZM148.923 15.7927C150.179 15.7927 151.304 15.5081 152.299 14.939C153.311 14.3699 154.102 13.5894 154.673 12.5976C155.26 11.5894 155.553 10.4675 155.553 9.23171C155.553 7.99593 155.26 6.88211 154.673 5.89024C154.102 4.88211 153.311 4.0935 152.299 3.52439C151.304 2.95528 150.179 2.67073 148.923 2.67073C147.667 2.67073 146.525 2.95528 145.498 3.52439C144.486 4.0935 143.687 4.88211 143.1 5.89024C142.529 6.88211 142.243 7.99593 142.243 9.23171C142.243 10.4675 142.529 11.5894 143.1 12.5976C143.687 13.5894 144.486 14.3699 145.498 14.939C146.525 15.5081 147.667 15.7927 148.923 15.7927Z" fill="#1B315F"/>
</svg>
